 <svg  version="1.0" xmlns="http://www.w3.org/2000/svg"  width="401.000000pt" height="401.000000pt" viewBox="0 0 401.000000 401.000000"  preserveAspectRatio="xMidYMid meet">  <g transform="translate(0.000000,401.000000) scale(0.050000,-0.050000)" fill="#f500e0" stroke="none"> <path d="M3489 7960 c-977 -153 -1769 -566 -2412 -1257 -151 -164 -153 -166 -167 -299 -7 -74 -26 -195 -42 -270 -67 -327 -28 -502 88 -393 35 32 44 34 44 10 0 -16 27 -44 60 -61 l59 -31 14 84 c12 78 15 81 31 36 13 -35 10 -64 -12 -101 -40 -67 -20 -87 35 -35 84 79 121 80 45 1 -91 -95 -89 -125 17 -292 87 -135 126 -265 46 -152 -51 72 -156 259 -212 375 -62 129 -121 112 -173 -49 -21 -64 -50 -129 -64 -145 -41 -46 -32 4 24 143 46 113 41 219 -6 142 -8 -12 -41 -29 -74 -37 -49 -12 -56 -9 -35 12 14 15 25 70 25 122 0 52 9 100 20 107 11 7 21 86 22 176 1 90 8 216 16 279 18 144 29 152 -138 -98 -219 -328 -519 -967 -453 -967 11 0 6 -11 -12 -25 -81 -61 -193 -645 -209 -1086 -34 -942 239 -1819 799 -2562 138 -183 156 -191 182 -75 11 43 25 83 32 88 12 9 47 122 116 380 16 61 39 128 52 150 48 87 37 844 -22 1381 -15 138 -51 209 -106 209 -33 0 -160 61 -217 104 -26 20 -69 36 -95 36 -26 0 -83 23 -127 50 -44 28 -91 50 -105 50 -14 0 -45 13 -68 30 -42 29 -43 27 -56 -125 -15 -168 18 -635 51 -739 11 -36 19 -81 16 -100 -2 -20 0 -49 6 -66 74 -217 66 -248 -37 -130 -133 153 -189 261 -253 490 -93 330 -23 1014 118 1155 16 15 28 41 28 56 0 16 9 29 20 29 46 0 7 71 -130 234 -11 14 -31 38 -45 54 -28 34 -33 72 -10 71 8 0 60 -59 115 -130 55 -71 112 -129 128 -129 16 0 23 5 17 12 -15 14 123 168 150 168 10 0 46 31 80 69 119 135 129 38 15 -134 -44 -66 -86 -142 -92 -168 -7 -26 -20 -47 -30 -47 -36 0 -17 -76 22 -86 22 -6 40 -4 40 3 0 23 295 123 364 123 40 0 90 58 107 125 7 30 21 55 31 55 10 0 31 29 47 65 44 96 126 238 152 263 37 35 1 -66 -56 -155 -29 -46 -41 -85 -30 -96 16 -16 205 -92 254 -103 25 -5 16 114 -14 206 -32 97 -33 935 -1 1080 13 61 33 160 44 220 10 61 26 128 34 150 15 37 14 38 -18 6 -19 -18 -34 -38 -34 -45 0 -6 -28 -54 -61 -106 -80 -124 -56 -38 35 121 64 114 144 278 235 484 79 178 131 271 219 391 51 70 92 117 92 104 0 -12 -13 -36 -30 -52 -16 -17 -30 -38 -30 -49 0 -10 -25 -53 -55 -96 -60 -85 -69 -102 -172 -338 -180 -409 -327 -1522 -219 -1653 12 -15 29 -121 37 -237 7 -115 24 -223 36 -240 88 -116 93 -193 24 -341 -43 -94 -46 -110 -20 -147 16 -22 29 -70 29 -105 0 -71 17 -156 103 -527 69 -296 112 -448 149 -530 37 -81 37 -18 0 129 -62 247 -73 311 -82 458 -10 181 0 159 40 -87 36 -225 76 -414 92 -440 7 -11 19 -56 27 -100 15 -84 59 -239 97 -340 13 -33 65 -115 116 -182 126 -167 135 -184 71 -134 -68 53 -94 45 -212 -68 -50 -48 -108 -103 -129 -122 -50 -45 -203 -284 -241 -376 -54 -128 -46 -143 75 -132 132 10 292 -65 294 -139 0 -30 -72 -4 -91 33 -28 55 -188 84 -271 49 -69 -28 -133 -147 -188 -349 -18 -66 -41 -136 -51 -155 -45 -82 -22 -124 136 -249 128 -101 157 -117 168 -89 9 26 14 23 20 -15 6 -43 420 -322 477 -322 8 0 11 47 8 105 l-6 105 30 -121 30 -121 124 -54 c161 -70 154 -74 156 71 1 108 4 117 20 65 10 -33 13 -95 6 -137 -9 -59 -6 -76 14 -69 28 9 138 209 138 251 0 14 9 25 20 25 30 0 26 -18 -39 -171 l-59 -139 104 -36 c740 -257 1672 -257 2490 0 l167 53 -9 171 c-15 292 -89 585 -216 856 -32 68 -58 131 -58 140 0 26 -160 328 -209 395 -24 33 -93 141 -152 238 -60 99 -128 187 -155 199 -26 12 -61 49 -78 82 l-32 61 -44 -100 c-51 -113 -126 -189 -239 -242 -67 -32 -122 -127 -73 -127 33 0 66 -127 49 -186 l-18 -62 -27 89 c-63 212 -80 228 -266 242 -316 23 -771 212 -878 364 -8 10 -18 9 -25 -2 -14 -22 23 -165 52 -200 14 -17 13 -25 -3 -25 -12 0 -22 8 -22 19 0 10 -11 30 -25 45 -14 14 -41 60 -60 101 -19 41 -48 75 -65 75 -16 0 -30 13 -30 29 0 32 -78 94 -101 80 -9 -5 -11 7 -6 26 9 34 -101 205 -132 205 -79 0 -223 -170 -210 -248 19 -113 65 -198 100 -184 23 9 24 4 4 -29 -34 -55 -72 -49 -88 15 -7 29 -25 76 -40 105 -15 28 -27 71 -27 95 0 24 -9 67 -20 95 -49 130 -97 981 -82 1446 4 95 42 40 43 -60 0 -151 75 -457 195 -799 90 -258 137 -318 82 -106 -98 380 -157 840 -160 1240 -1 288 -4 314 -29 260 l-27 -60 -4 60 -3 60 -13 -66 c-20 -107 -52 -73 -50 53 1 88 17 149 66 249 l64 132 -34 106 c-19 58 -41 124 -50 146 -84 213 -122 999 -61 1280 34 159 87 338 104 350 8 6 20 28 26 50 29 101 -8 -75 -46 -220 -116 -436 -94 -1047 54 -1525 47 -151 53 -162 78 -126 52 73 149 130 169 99 38 -58 -47 -218 -115 -218 -48 0 -29 -80 53 -220 44 -75 80 -147 80 -158 0 -38 -30 -24 -51 23 -11 25 -30 43 -43 41 -12 -3 -32 36 -44 85 -42 165 -62 99 -66 -216 -6 -522 24 -977 69 -1032 29 -33 298 -169 405 -203 44 -14 92 -35 107 -47 14 -11 73 -38 130 -59 57 -21 135 -50 173 -65 l70 -27 -65 -1 c-70 -1 -98 -109 -40 -156 170 -138 746 -309 685 -203 -36 61 -202 218 -255 240 -71 30 -72 63 0 43 162 -45 772 -7 1055 66 22 5 76 15 120 22 44 6 89 19 100 27 11 8 51 22 90 30 38 9 97 36 130 60 33 25 83 52 110 61 177 54 432 245 515 385 55 95 80 362 39 419 -22 29 -15 106 46 500 47 312 40 503 -25 633 -11 21 -27 100 -37 176 -28 227 -56 234 -61 16 -4 -187 -4 -186 -16 70 -9 216 -19 275 -56 346 -25 47 -45 101 -46 120 0 41 -49 109 -72 102 -9 -3 -20 12 -24 33 -9 46 -65 134 -77 121 -20 -20 -4 -761 17 -786 47 -56 56 -14 62 289 l6 315 5 -322 4 -322 70 -75 c39 -40 70 -82 70 -92 0 -11 14 -19 30 -19 17 0 30 -18 30 -39 0 -22 11 -63 24 -92 20 -44 19 -57 -6 -76 -24 -18 -30 -55 -25 -163 l6 -140 -37 150 c-48 196 -193 420 -272 420 -55 0 -88 -326 -43 -416 96 -190 35 -532 -113 -639 -221 -158 -519 46 -568 388 -13 91 -15 93 -28 37 -7 -33 -14 77 -16 245 -1 168 -9 305 -18 305 -19 0 -64 -118 -64 -167 0 -19 -17 -59 -38 -89 -21 -30 -43 -107 -50 -174 -8 -70 -25 -129 -42 -142 -17 -12 -30 -37 -30 -55 0 -18 -9 -33 -20 -33 -11 0 -20 18 -20 40 0 22 8 40 18 40 41 0 69 285 62 630 -5 231 -13 226 -60 -40 -20 -112 -119 -408 -168 -500 -17 -33 -32 -71 -32 -85 0 -14 -8 -25 -17 -25 -9 0 -34 -34 -55 -75 -103 -203 -168 -218 -156 -35 3 55 13 384 21 730 16 665 33 696 57 100 8 -185 5 -435 -7 -570 -25 -303 -12 -314 101 -85 177 359 248 642 280 1103 16 230 28 323 40 292 30 -80 55 -400 56 -692 0 -155 6 -287 13 -294 20 -21 98 224 161 506 70 313 49 1045 -36 1238 -21 48 -38 107 -38 132 0 25 -13 83 -30 130 -16 47 -30 95 -30 108 0 51 84 -109 132 -256 29 -86 87 -231 129 -321 85 -185 170 -424 190 -536 18 -102 48 -115 52 -21 l2 76 13 -65 c6 -35 27 -82 46 -104 19 -22 26 -45 16 -51 -22 -13 -1 -297 23 -307 9 -3 17 -95 17 -204 0 -191 2 -201 59 -264 80 -89 94 -66 122 195 63 570 24 1147 -77 1152 -21 1 -24 5 -9 11 60 24 -57 399 -222 707 -74 139 -18 97 75 -58 62 -100 163 -351 231 -572 21 -67 42 -88 128 -130 84 -40 95 -51 58 -56 -60 -9 -58 -23 32 -180 42 -75 81 -153 88 -175 6 -21 48 -142 91 -269 87 -252 133 -460 170 -776 34 -288 71 -257 156 126 137 617 63 1409 -172 1834 -26 47 -67 122 -91 166 -24 44 -49 85 -57 90 -20 15 -133 166 -150 200 -22 46 143 -139 210 -235 33 -47 70 -115 82 -150 13 -36 28 -69 34 -75 111 -93 243 -606 272 -1060 17 -250 -92 -974 -167 -1114 -11 -22 -23 -347 -28 -797 -8 -749 -9 -762 -63 -966 -60 -229 -59 -246 12 -179 189 179 396 660 396 920 0 53 8 96 19 96 29 0 47 -211 34 -398 -11 -168 -11 -170 18 -90 79 226 199 1763 122 1578 -65 -158 -105 -234 -136 -263 -48 -43 -48 -7 0 89 185 368 228 976 102 1466 -24 97 -34 171 -23 182 27 27 55 -22 82 -146 13 -62 40 -145 60 -184 34 -66 84 -231 150 -494 l28 -110 2 216 c2 233 29 274 47 70 14 -168 -22 -540 -56 -574 -5 -5 -9 19 -9 53 0 75 -57 308 -82 334 -10 10 -18 49 -18 85 0 75 -34 89 -49 21 -5 -25 -20 -351 -32 -725 -12 -374 -30 -761 -40 -860 -38 -396 -60 -562 -79 -595 -11 -19 -20 -57 -20 -85 0 -27 -8 -50 -18 -50 -10 0 -14 -17 -8 -38 14 -56 -31 -255 -65 -283 -25 -21 -29 4 -30 174 -1 161 -6 188 -24 147 -153 -345 -272 -526 -428 -652 -53 -43 -104 -87 -113 -98 -22 -26 2 -485 27 -531 24 -46 26 -334 1 -308 -19 21 -61 363 -76 624 -7 135 -15 165 -41 165 -26 0 -28 5 -9 24 17 17 20 103 11 315 -7 173 -3 363 10 470 27 212 28 208 -62 127 -40 -35 -147 -105 -238 -155 l-166 -92 5 -89 c28 -505 52 -734 95 -910 64 -268 109 -719 109 -1103 0 -485 -25 -355 -50 263 -20 487 -105 938 -192 1013 -21 18 -38 47 -38 64 0 62 -78 208 -133 249 -50 37 -51 41 -12 31 89 -23 20 105 -97 178 -60 38 -191 62 -206 39 -15 -25 117 -137 150 -128 22 5 22 3 3 -11 -19 -13 -10 -45 38 -134 87 -161 193 -443 285 -761 l29 -100 2 188 c2 290 24 201 34 -137 4 -166 17 -344 28 -396 46 -225 61 -374 68 -675 6 -296 22 -470 45 -470 83 0 85 41 15 355 -22 99 18 78 49 -25 15 -50 56 -123 91 -163 l65 -73 152 77 c84 43 173 93 197 111 l44 34 -66 157 c-66 158 -169 435 -243 657 -103 307 -237 970 -196 970 24 0 21 11 98 -350 69 -323 73 -339 151 -580 29 -88 73 -232 99 -320 26 -88 62 -187 79 -220 l33 -60 -13 80 c-6 44 -20 103 -30 130 -9 28 -27 100 -38 160 -12 61 -27 135 -33 165 -8 32 -4 55 8 55 11 0 26 -54 34 -120 8 -66 22 -120 32 -120 10 0 18 -22 18 -49 0 -27 8 -54 19 -60 10 -7 24 -54 31 -106 7 -52 21 -113 31 -135 10 -22 25 -82 34 -134 l15 -94 189 134 c2013 1431 2221 4358 433 6111 -255 251 -269 249 -134 -14 55 -106 94 -193 86 -193 -8 0 -2 -8 13 -18 16 -10 24 -30 19 -45 -5 -15 -56 68 -113 185 -148 302 -232 407 -438 545 -787 526 -1850 772 -2736 633z m109 -1115 c-33 -517 14 -1048 103 -1175 7 -11 20 -65 27 -120 12 -96 139 -607 194 -784 14 -47 19 -92 11 -100 -19 -19 -52 32 -53 80 0 20 -22 83 -48 140 -27 57 -55 135 -63 174 -8 38 -26 88 -40 110 -14 22 -36 110 -49 197 -13 86 -40 206 -62 268 -21 61 -38 143 -38 183 0 98 -63 383 -82 371 -21 -13 -72 -197 -89 -319 -7 -55 -28 -122 -45 -150 -20 -30 -34 -99 -35 -176 -2 -69 -9 -130 -15 -137 -21 -20 10 -67 44 -67 71 0 242 -102 242 -144 0 -44 -5 -43 -150 12 -44 17 -119 31 -167 31 -81 1 -87 5 -77 46 7 25 22 90 35 145 13 55 31 109 41 119 10 10 18 48 18 84 0 66 18 153 119 577 58 242 99 483 142 830 23 189 34 232 53 213 5 -6 -2 -189 -16 -408z m-656 -23 c-22 -92 -46 -173 -54 -179 -19 -19 12 183 33 208 9 12 24 61 32 110 8 49 18 75 22 58 3 -17 -12 -106 -33 -197z m2111 -279 c15 -23 18 -61 7 -105 -11 -47 -17 -54 -18 -23 -1 25 -18 61 -38 81 -38 38 -37 84 3 84 13 0 34 -17 46 -37z m-2174 -48 c-11 -151 -1 -192 41 -181 56 15 50 -15 -15 -66 l-55 -44 2 -357 c2 -403 19 -564 54 -529 12 12 45 22 73 22 42 1 45 5 21 22 -24 17 -19 19 20 10 28 -6 75 -12 105 -12 149 0 45 -117 -111 -124 l-114 -6 0 -70 c1 -105 24 -131 93 -104 31 12 84 25 117 28 52 5 61 15 66 71 9 93 44 81 44 -15 0 -44 9 -80 19 -80 108 0 267 -334 268 -560 1 -545 -559 -712 -783 -233 -52 109 -58 193 -14 193 38 0 38 17 -1 108 -24 59 -26 88 -8 148 16 52 16 127 2 254 -19 176 -4 386 57 790 40 265 37 420 -9 422 -33 2 -34 4 -7 12 39 10 44 23 79 221 26 146 64 201 56 80z m3940 10 c0 -19 8 -87 17 -150 9 -63 9 -115 0 -115 -9 0 -17 25 -18 55 -2 72 -9 123 -27 190 -10 34 -8 55 6 55 11 0 21 -16 22 -35z m-3154 -275 c6 -121 3 -202 -6 -180 -16 39 -27 425 -12 408 4 -4 12 -107 18 -228z m-2396 -92 c-18 -49 -37 -108 -43 -133 -6 -25 -19 -45 -28 -45 -27 0 -23 19 37 165 60 146 87 156 34 13z m5610 -3 c0 -70 -4 -78 -21 -49 -20 34 -10 134 12 134 6 0 10 -38 9 -85z m-5499 20 c0 -39 -166 -394 -185 -395 -21 0 -19 48 3 71 36 40 118 204 131 265 11 48 51 95 51 59z m406 -530 c-6 -107 -20 -204 -31 -215 -14 -13 -16 22 -8 108 7 70 13 167 13 215 0 48 8 87 18 87 11 0 14 -82 8 -195z m-1067 -10 c-1 -39 -339 -193 -339 -155 0 11 14 20 30 20 17 0 30 9 30 20 0 11 16 21 35 21 19 1 80 27 135 58 55 31 102 58 105 59 3 1 5 -9 4 -23z m4661 -169 c43 -37 53 -96 20 -116 -12 -7 -16 -21 -10 -30 18 -29 -18 -38 -51 -13 -43 32 -61 87 -47 145 15 57 34 60 88 14z m2235 -14 c30 -65 -61 -116 -95 -53 -35 67 -26 81 62 99 6 1 21 -19 33 -46z m-119 -57 c6 -30 -331 -216 -345 -190 -37 66 -48 117 -26 126 300 111 360 121 371 64z m-5761 -849 c-3 -163 -6 -35 -6 284 0 319 3 452 6 296 3 -156 3 -417 0 -580z m5946 741 c11 -29 18 -54 15 -56 -101 -64 -138 -92 -106 -81 92 33 115 34 132 8 44 -71 20 -89 -223 -168 -206 -67 -244 -74 -260 -49 -36 57 -21 95 46 112 l65 15 -78 11 c-151 21 -136 94 22 111 100 10 155 30 234 81 124 82 128 82 153 16z m-7001 -43 c0 -23 -419 -232 -475 -237 -25 -3 -45 4 -45 14 0 11 9 19 20 19 11 0 21 20 22 45 2 34 5 36 12 10 12 -48 10 -48 236 64 209 104 230 112 230 85z m5773 -180 c35 -132 34 -327 -2 -375 -27 -36 -30 -27 -32 101 -1 77 -9 192 -17 256 -21 171 8 181 51 18z m-838 -289 c-4 -58 -8 -10 -8 105 0 116 4 163 8 105 4 -58 4 -152 0 -210z m2137 170 c71 -47 86 -163 29 -215 -37 -33 -306 -109 -386 -110 -170 -1 -142 279 29 287 96 4 111 -96 17 -117 -33 -7 -61 -22 -61 -34 0 -11 11 -16 26 -10 14 5 79 20 145 34 140 29 219 68 106 53 -71 -10 -119 55 -84 112 12 19 150 19 179 0z m87 -378 c98 -125 29 -205 -207 -239 -235 -35 -344 20 -302 152 40 127 425 193 509 87z m-229 -307 c11 1 76 7 145 13 l125 11 0 -62 c0 -62 0 -62 -110 -62 -60 0 -110 -7 -110 -15 0 -8 52 -15 115 -15 114 0 115 0 115 -60 l0 -60 -265 -6 -265 -5 0 97 c0 140 57 194 180 172 28 -5 59 -9 70 -8z m-5830 -177 c0 -76 6 -168 13 -205 9 -48 6 -62 -9 -48 -32 29 -56 390 -27 390 15 0 23 -48 23 -137z m5700 -283 c0 -27 13 -40 40 -40 22 0 40 13 40 30 0 47 93 38 106 -10 6 -25 27 -40 54 -40 27 0 48 15 54 40 25 94 106 49 106 -59 0 -125 10 -122 -261 -99 -289 25 -271 17 -262 126 8 101 123 150 123 52z m149 -233 c111 -18 209 -39 219 -48 31 -29 -5 -122 -44 -112 -92 25 -187 34 -176 16 7 -11 58 -26 114 -33 97 -14 126 -69 66 -129 -10 -10 -486 71 -501 85 -47 47 23 112 110 103 68 -7 82 -5 53 9 -22 11 -65 20 -95 21 -59 1 -61 6 -42 76 14 54 33 55 296 12z m-245 -267 c11 0 16 -17 11 -38 -9 -34 13 -44 182 -86 157 -39 194 -55 198 -87 11 -86 -17 -91 -215 -37 -174 48 -190 49 -212 18 -17 -22 -39 -29 -67 -20 -47 15 -49 29 -20 140 34 128 38 135 71 122 17 -7 41 -12 52 -12z m286 -543 c6 -6 2 -35 -9 -64 l-20 -52 -225 80 c-261 94 -271 101 -241 166 l22 49 231 -84 c127 -46 235 -89 242 -95z m-185 -131 c108 -48 117 -57 105 -104 -19 -74 -21 -74 -121 -26 -99 48 -109 51 -109 29 0 -8 41 -32 90 -52 94 -39 107 -62 65 -120 -23 -31 -44 -25 -258 70 -246 109 -249 112 -185 213 2 4 32 -7 65 -25 34 -17 77 -30 97 -30 20 1 -2 19 -49 40 -89 39 -98 57 -65 120 23 42 -3 50 365 -115z m-344 -197 c32 -16 59 -35 59 -41 0 -10 -39 -91 -51 -105 -3 -3 -29 9 -57 27 -28 19 -62 30 -76 25 -24 -8 194 -140 274 -165 33 -11 30 -4 -13 33 -98 87 -22 172 85 96 100 -71 51 -259 -68 -259 -53 0 -300 132 -354 190 -115 123 44 281 201 199z m-165 -289 c55 -34 62 -46 45 -79 -32 -60 -60 -68 -101 -31 -21 19 -49 30 -62 26 -14 -5 36 -50 110 -102 136 -96 227 -129 127 -48 -53 44 -38 134 23 134 94 0 147 -163 81 -247 -67 -85 -252 -20 -418 146 -128 128 35 298 195 201z m-102 -339 c182 -153 201 -231 76 -313 -150 -98 -487 257 -367 386 71 75 134 59 291 -73z m-3354 -231 c29 -38 28 -39 -10 -10 -44 34 -126 126 -168 188 -31 47 132 -116 178 -178z m3048 52 c31 -32 50 -68 43 -80 -8 -13 -1 -17 18 -10 34 13 200 -137 188 -169 -15 -41 -144 -183 -165 -183 -13 0 -104 81 -202 181 l-180 181 75 69 c91 84 150 87 223 11z m-2848 -199 c39 -12 97 -30 130 -39 89 -26 62 -55 -46 -49 -78 5 -106 18 -168 80 -80 80 -106 139 -31 71 25 -23 77 -51 115 -63z m-747 -55 c14 -34 -51 -368 -71 -368 -9 0 -12 229 -3 375 2 36 60 31 74 -7z m-674 -183 c35 -58 61 -114 58 -125 -7 -20 -197 281 -197 311 0 21 66 -66 139 -186z m2161 -350 c1 -17 7 -15 20 5 25 39 25 -31 0 -90 -17 -39 -17 -38 -19 4 0 24 -10 49 -21 56 -11 7 -20 21 -20 31 0 11 9 19 20 19 11 0 20 -11 20 -25z m-1919 -195 c11 0 19 -18 19 -40 0 -22 -9 -40 -20 -40 -11 0 -20 8 -20 18 0 9 -3 43 -7 75 -4 31 -4 41 1 22 5 -19 17 -35 27 -35z m1979 -100 c0 -44 -9 -80 -20 -80 -11 0 -20 36 -20 80 0 44 9 80 20 80 11 0 20 -36 20 -80z m60 -72 c0 -55 -8 -86 -20 -78 -11 7 -20 53 -20 102 0 55 8 86 20 78 11 -7 20 -53 20 -102z"/> <path d="M2775 5430 c-25 -145 -25 -156 -2 -164 33 -12 42 33 28 144 l-12 100 -14 -80z"/> <path d="M2764 5116 c-14 -14 -24 -79 -23 -155 l0 -131 40 50 c21 28 49 62 62 78 18 21 18 36 0 64 -13 21 -23 56 -23 78 0 45 -21 51 -56 16z"/> <path d="M3341 4749 c0 -10 13 -41 29 -69 68 -118 -14 -373 -149 -466 -33 -22 -39 -34 -19 -34 144 0 272 399 173 539 -19 28 -35 41 -34 30z"/> <path d="M3189 4564 c9 -28 -1 -53 -30 -80 -47 -45 -24 -75 42 -54 48 16 49 150 2 166 -19 6 -23 -3 -14 -32z"/> <path d="M3030 4280 c7 -11 34 -20 60 -20 26 0 53 9 60 20 7 12 -17 20 -60 20 -43 0 -67 -8 -60 -20z"/> <path d="M7550 4449 l-140 -27 170 11 c94 5 179 18 189 29 25 24 -44 20 -219 -13z"/> <path d="M6641 1786 c2 -23 259 -232 271 -221 5 5 -43 54 -106 109 -129 111 -167 136 -165 112z"/> <path d="M4865 5999 c-3 -244 -14 -399 -35 -478 -16 -64 -30 -140 -30 -169 0 -29 -9 -52 -20 -52 -11 0 -20 -18 -20 -40 0 -57 23 -50 101 31 l69 72 -60 -13 c-57 -12 -58 -11 -21 19 21 17 46 31 55 31 9 0 18 182 21 405 l4 405 6 -395 c6 -374 8 -395 44 -395 21 0 44 9 51 21 7 11 24 19 37 17 52 -6 93 3 93 21 0 11 -11 15 -25 10 -19 -7 -25 30 -26 147 0 100 -12 181 -33 225 -17 38 -38 110 -45 159 -16 108 -50 203 -83 230 -14 11 -28 37 -31 58 -25 145 -48 12 -52 -309z"/> <path d="M4995 5277 c-47 -17 -55 -31 -55 -99 0 -86 10 -93 76 -47 49 35 143 44 184 19 20 -12 23 -5 13 32 -7 26 -13 64 -13 83 0 40 -110 47 -205 12z"/> <path d="M4825 5180 l-65 -39 0 -211 c0 -247 5 -254 49 -73 20 83 49 147 72 164 28 20 39 52 39 113 0 98 -6 101 -95 46z"/> <path d="M5720 5112 c0 -4 13 -38 29 -75 30 -69 47 -22 19 51 -11 28 -48 46 -48 24z"/> <path d="M5286 4890 c7 -103 34 -181 34 -101 0 21 11 31 27 25 31 -12 24 66 -12 141 -37 77 -57 50 -49 -65z"/> <path d="M5090 4900 c-7 -12 13 -20 49 -20 33 0 61 9 61 20 0 11 -22 20 -49 20 -27 0 -54 -9 -61 -20z"/> <path d="M1160 4766 c-22 -28 -40 -65 -40 -81 0 -36 -91 -125 -127 -125 -14 0 -36 -11 -50 -25 -20 -20 -29 -19 -44 5 -11 18 -19 21 -19 6 0 -13 56 -51 125 -84 149 -73 104 -82 -65 -14 -111 45 -180 49 -230 11 -11 -8 -49 -20 -83 -28 -58 -12 -69 -28 -117 -160 -65 -178 -56 -221 57 -270 46 -19 124 -54 173 -76 329 -149 506 -221 527 -213 28 10 111 227 130 338 7 44 20 76 28 70 19 -13 54 53 114 220 26 72 56 141 66 154 57 75 -40 192 -215 262 -157 63 -187 64 -230 10z"/> <path d="M5184 4680 c-27 -72 -11 -104 38 -74 46 28 46 35 9 85 -27 38 -29 38 -47 -11z"/> <path d="M442 4570 c-321 -447 -325 -1232 -7 -1660 28 -38 29 -37 17 20 -150 712 -145 1150 19 1584 60 161 55 173 -29 56z"/> <path d="M4980 4420 c24 -45 82 -80 132 -80 26 0 18 15 -32 60 -79 71 -133 82 -100 20z"/> <path d="M5999 4409 c-44 -112 -64 -342 -42 -474 12 -69 32 -237 45 -375 40 -411 58 -321 58 281 -1 566 -14 689 -61 568z"/> <path d="M1515 4157 c-49 -103 -44 -159 25 -254 73 -100 88 -104 68 -18 -8 36 -25 128 -36 205 l-22 140 -35 -73z"/> <path d="M1438 3948 c-1 -10 -4 -211 -6 -448 -6 -648 -86 -1172 -241 -1580 -15 -38 -42 -124 -62 -190 -19 -66 -55 -176 -80 -245 l-45 -124 154 -161 c174 -180 191 -187 218 -95 79 263 212 669 224 685 31 41 109 419 149 720 48 355 58 572 32 660 -12 44 -50 183 -82 309 -41 156 -75 246 -107 280 -26 28 -71 86 -100 129 -29 43 -53 70 -54 60z"/> <path d="M1336 3735 c-3 -26 -30 -56 -63 -72 -45 -21 -54 -36 -44 -70 27 -88 50 -371 52 -638 1 -155 10 -275 20 -275 11 0 19 7 19 15 0 8 14 128 30 265 33 278 40 791 11 809 -10 6 -21 -9 -25 -34z"/> <path d="M5871 3455 c-28 -384 -6 -894 34 -821 19 35 35 95 35 134 0 38 9 75 19 82 22 13 15 515 -9 685 -25 174 -64 134 -79 -80z"/> <path d="M2987 3066 c-61 -12 -66 -39 -41 -215 20 -136 18 -162 -12 -215 -50 -87 -46 -95 97 -223 265 -238 931 -474 980 -347 7 17 25 27 41 21 15 -6 28 -1 28 11 0 12 -13 22 -30 22 -34 0 -43 110 -11 129 11 7 15 25 9 40 -6 15 7 62 28 104 55 110 49 196 -16 202 -403 39 -795 210 -951 415 -30 39 -59 69 -66 67 -7 -1 -32 -6 -56 -11z"/> <path d="M2775 2827 c-84 -60 -87 -72 -45 -175 60 -141 214 -15 176 145 -22 90 -40 95 -131 30z"/> <path d="M4490 2773 c-38 -79 -57 -93 -230 -173 -16 -8 -30 -23 -30 -34 0 -27 -96 -234 -116 -248 -46 -33 -5 -248 46 -242 133 15 260 169 260 314 0 64 -4 71 -30 50 -84 -70 -26 86 70 188 67 71 100 123 100 158 0 81 -26 76 -70 -13z"/> <path d="M5244 2746 c-21 -8 -17 -21 13 -53 22 -24 44 -65 49 -93 5 -27 8 -6 6 48 -2 98 -17 119 -68 98z"/> <path d="M1864 2551 c-13 -29 -24 -66 -24 -82 0 -16 -9 -29 -20 -29 -11 0 -20 -17 -20 -39 0 -21 -8 -43 -17 -49 -10 -6 -23 -45 -29 -87 -7 -41 -18 -95 -25 -120 -9 -30 -5 -45 11 -45 39 0 78 63 82 130 3 43 6 48 12 18 8 -40 11 -39 72 20 39 38 55 66 41 72 -16 7 -10 26 18 60 25 31 44 41 49 26 14 -38 66 -6 66 41 -1 33 -5 36 -18 15 -12 -19 -38 -24 -79 -16 -34 7 -67 4 -73 -7 -18 -28 -50 -23 -50 9 0 44 60 85 79 54 12 -19 18 -18 28 6 8 22 0 32 -26 32 -21 0 -41 10 -45 22 -4 13 -18 -1 -32 -31z"/> </g> </svg> 