<?xml version="1.0" standalone="no"?>
<!DOCTYPE svg PUBLIC "-//W3C//DTD SVG 20010904//EN"
 "http://www.w3.org/TR/2001/REC-SVG-20010904/DTD/svg10.dtd">
<svg  version="1.0" xmlns="http://www.w3.org/2000/svg" 
 width="300.000000pt" height="300.000000pt" viewBox="0 0 300.000000 300.000000"
 preserveAspectRatio="xMidYMid meet" >
<metadata>
Created by potrace 1.10, written by Peter Selinger 2001-2011
</metadata>
<g transform="translate(0.000000,300.000000) scale(0.050000,-0.050000)"
fill="#ff0095" stroke="none" >
<path  d="M0 3000 l0 -3000 3000 0 2999 0 1 2259 c0 1494 -7 2263 -20 2271 -11
7 -20 21 -20 32 0 11 9 15 20 8 29 -18 25 37 -5 69 -14 15 -16 22 -4 15 13 -7
22 40 26 130 4 90 -1 136 -14 128 -11 -7 -26 -3 -33 8 -7 12 -6 20 4 18 41 -7
49 5 23 36 -18 23 -19 29 -2 19 19 -12 25 28 25 174 0 133 -7 193 -25 200 -19
8 -19 14 3 29 31 22 10 71 -22 51 -14 -8 -16 -4 -8 10 8 13 23 18 33 12 28
-17 23 79 -6 110 -20 21 -20 24 0 13 19 -11 25 33 25 194 l0 209 -185 -3
c-140 -2 -184 -9 -180 -29 4 -14 -3 -20 -15 -13 -11 7 -16 20 -11 29 6 9 -12
16 -39 16 -27 0 -44 -8 -38 -17 5 -10 1 -18 -11 -18 -11 0 -21 8 -21 17 0 9
-81 18 -181 20 -140 2 -178 -3 -166 -22 11 -20 8 -20 -15 -1 -22 18 -645 24
-2584 25 l-2554 1 0 -3000z m3432 2942 c54 -11 137 -25 185 -32 48 -7 109 -21
135 -31 26 -10 48 -13 48 -6 0 7 14 1 30 -13 17 -14 30 -20 30 -13 0 6 41 -6
90 -27 50 -21 90 -35 90 -30 0 17 274 -110 427 -197 224 -129 238 -144 227
-253 -13 -137 112 -400 192 -400 59 0 86 -39 66 -92 -10 -27 -18 -28 -44 -7
-26 22 -34 21 -48 -2 -15 -23 -20 -22 -31 6 -7 19 -20 31 -28 26 -38 -24 -102
51 -71 82 67 67 -48 299 -146 294 -63 -3 -84 41 -37 75 56 41 -233 273 -362
290 -41 6 -124 25 -185 43 -60 18 -122 31 -137 28 -17 -4 -21 4 -12 19 10 16
7 19 -10 9 -15 -9 -32 -5 -42 10 -13 22 -22 22 -47 0 -27 -21 -32 -21 -32 2
-1 21 -5 21 -20 -3 -17 -26 -19 -25 -20 5 0 40 -32 47 -47 10 -6 -15 -10 -12
-11 9 -2 25 -15 31 -54 24 -29 -5 -65 1 -80 14 -24 19 -26 17 -15 -13 12 -30
7 -29 -30 8 -23 23 -52 43 -63 43 -11 0 -22 0 -25 1 -3 1 -38 8 -78 18 -43 9
-82 8 -92 -2 -11 -11 -42 -10 -77 4 -66 26 -168 37 -168 19 0 -6 -55 -12 -122
-13 -67 0 -127 -10 -135 -21 -7 -11 -29 -18 -48 -15 -21 3 -36 -8 -37 -28 -1
-22 -5 -25 -12 -7 -7 20 -17 17 -37 -10 -15 -20 -28 -26 -28 -13 -1 25 -187
16 -196 -10 -3 -7 -39 -11 -80 -7 -134 13 -390 -382 -483 -746 -88 -342 -29
-1180 90 -1287 8 -7 9 3 2 22 -12 33 72 135 111 135 57 0 -19 -161 -88 -184
-18 -6 -6 -45 39 -131 35 -68 64 -133 64 -144 0 -37 -79 56 -92 109 -41 163
-54 53 -41 -352 21 -666 -18 -613 608 -827 266 -91 301 -141 56 -79 -48 12
-54 8 -48 -32 12 -82 279 -203 507 -232 72 -8 -84 148 -192 193 -84 34 -73 66
17 50 169 -29 367 -34 505 -12 214 33 565 121 600 151 17 14 84 53 150 86 310
156 375 252 357 524 -8 117 -2 223 21 342 39 209 40 382 1 488 -15 44 -29 104
-29 133 -1 148 -30 189 -42 57 l-11 -130 -4 160 c-3 88 -18 196 -35 240 -17
44 -41 112 -54 150 -22 64 -25 49 -35 -170 l-11 -240 -4 246 c-3 178 -13 263
-35 307 -43 83 -43 85 -33 -247 l8 -294 68 -46 c38 -25 73 -62 79 -81 7 -19
19 -35 28 -35 36 0 55 -117 45 -277 -9 -160 -43 -196 -44 -47 0 37 -20 113
-45 170 l-45 104 -11 -210 -11 -210 -4 222 c-4 229 -58 372 -95 256 -7 -21
-22 -63 -34 -94 -16 -42 -12 -92 15 -205 88 -374 -56 -578 -334 -472 -129 50
-211 335 -155 536 38 137 150 236 253 224 55 -7 73 61 29 107 -16 17 -164 -14
-181 -38 -7 -9 -39 -30 -72 -47 -47 -24 -62 -47 -71 -110 l-12 -79 -9 70 -10
70 -15 -60 c-8 -33 -32 -93 -54 -134 -22 -42 -39 -113 -39 -165 0 -50 -8 -91
-18 -91 -9 0 -22 -18 -28 -40 -6 -22 -20 -40 -32 -40 -32 0 -27 81 11 150 24
44 34 128 39 320 l6 260 -35 -160 c-19 -88 -46 -185 -59 -216 -13 -31 -24 -66
-24 -78 0 -27 -88 -205 -141 -286 -22 -33 -45 -76 -52 -95 -25 -73 -67 -21
-67 84 0 32 -13 62 -30 68 -16 7 -30 34 -30 62 0 36 -8 47 -30 38 -23 -8 -30
4 -30 51 0 34 -17 101 -37 147 -56 129 -102 276 -121 386 -9 54 -27 140 -39
189 -12 50 -34 167 -49 260 -33 203 -62 172 -99 -105 -11 -85 -28 -155 -38
-155 -9 0 -17 -30 -17 -68 0 -41 10 -67 25 -67 58 3 95 -6 95 -22 0 -10 -31
-15 -70 -12 -105 8 -86 -35 35 -82 78 -30 107 -52 111 -85 8 -54 3 -54 -91 -4
-41 22 -104 40 -140 40 -36 0 -65 8 -65 18 0 55 99 506 155 702 28 99 52 250
58 360 11 207 115 692 159 739 49 52 53 5 11 -133 -79 -262 -125 -806 -86
-1016 15 -85 19 -57 21 180 5 412 65 814 114 764 7 -6 3 -55 -9 -108 -12 -53
-32 -199 -43 -326 -12 -126 -25 -257 -29 -290 -38 -284 207 -1526 279 -1411 8
14 12 233 8 487 -6 335 -2 463 15 468 34 12 55 -360 42 -744 l-10 -320 77 164
c120 250 198 587 198 853 0 164 6 214 25 208 34 -11 51 -170 53 -501 2 -309
18 -328 79 -99 154 573 79 1202 -192 1627 -86 134 -97 175 -40 153 47 -18 188
-281 264 -493 41 -114 102 -271 134 -350 88 -209 137 -347 137 -385 0 -18 5
-28 12 -22 16 17 -71 398 -99 433 -13 16 -21 43 -18 61 3 17 -12 86 -33 151
-22 67 -32 128 -23 137 14 14 73 -144 112 -300 3 -12 45 -36 92 -52 48 -17
103 -37 122 -45 70 -29 -55 320 -199 553 -38 63 -66 130 -62 150 7 28 22 15
67 -58 33 -52 98 -155 145 -230 47 -74 90 -157 95 -185 5 -27 21 -99 35 -160
l26 -110 119 -40 c144 -48 136 -43 121 -67 -8 -13 -38 -10 -85 9 -98 42 -101
28 -20 -95 111 -168 236 -594 283 -962 10 -77 48 -137 51 -80 0 8 18 101 40
205 140 673 5 1296 -368 1700 -70 75 -95 140 -53 140 35 0 268 -301 316 -406
25 -56 58 -116 73 -133 64 -71 151 -538 151 -810 0 -176 -75 -613 -127 -736
-21 -51 -25 -166 -18 -525 8 -435 6 -474 -43 -709 -58 -278 -57 -291 14 -197
148 194 242 418 265 631 19 181 49 133 51 -81 1 -138 6 -169 19 -126 24 81 99
859 98 1015 l-1 127 -34 -80 c-104 -245 -137 -225 -155 92 -5 86 -11 167 -14
180 -3 13 5 27 18 32 28 10 53 -120 51 -269 -1 -123 6 -129 43 -38 104 247
130 708 55 979 -50 182 -52 214 -13 214 31 0 41 -26 63 -150 7 -44 26 -104 41
-134 15 -30 49 -138 76 -240 l48 -186 1 130 c2 122 -28 349 -79 600 -27 134
-183 443 -276 546 -84 92 -72 116 19 40 238 -194 574 -560 688 -749 166 -275
290 -530 290 -597 0 -18 9 -41 19 -51 10 -10 24 -49 31 -87 6 -37 21 -84 31
-105 11 -20 14 -37 6 -37 -8 0 -5 -10 7 -22 13 -13 18 -34 13 -48 -5 -14 3
-71 20 -125 16 -54 22 -110 14 -124 -17 -27 -40 37 -41 112 -1 171 -211 674
-273 653 -13 -5 -29 1 -36 13 -8 12 -44 21 -81 21 -90 0 -130 18 -130 58 0 18
-13 52 -30 76 -41 59 -75 152 -50 136 11 -7 20 -25 20 -41 0 -16 8 -29 18 -29
9 0 22 -19 28 -42 6 -23 23 -38 36 -34 41 14 43 51 4 91 -35 37 -41 52 -58
135 -4 22 -21 50 -38 62 -16 12 -30 33 -30 46 0 14 -10 18 -21 11 -12 -7 -19
-1 -16 14 8 42 -24 119 -44 106 -11 -6 -19 3 -19 20 0 17 -14 31 -31 31 -17 0
-26 9 -19 20 7 11 3 20 -9 20 -24 0 -28 -46 -6 -68 37 -37 100 -677 82 -830
-29 -252 -57 -329 -57 -159 0 50 -13 135 -30 189 -16 54 -30 118 -30 143 0 25
-8 45 -17 45 -20 0 -45 -389 -52 -800 -6 -338 -67 -905 -104 -965 -7 -11 -15
-53 -18 -95 -13 -181 -67 -204 -70 -30 -2 159 -2 160 -29 86 -51 -138 -186
-347 -270 -417 -154 -127 -146 -109 -130 -298 8 -94 21 -184 29 -201 9 -16 21
-111 29 -209 13 -176 94 -568 133 -636 10 -19 19 -48 19 -65 0 -55 31 -31 89
68 46 79 73 102 139 122 203 60 297 138 532 440 195 251 420 717 420 869 0 34
15 83 33 109 17 25 41 79 51 119 10 40 32 118 47 173 l29 100 -13 -120 c-20
-193 -24 -220 -46 -277 -11 -29 -15 -53 -8 -53 7 0 1 -14 -13 -30 -14 -17 -19
-30 -12 -30 7 0 -6 -36 -28 -80 -22 -44 -36 -80 -30 -80 6 0 0 -20 -14 -45
-13 -25 -23 -52 -20 -60 2 -8 -5 -15 -16 -15 -11 0 -21 -16 -22 -35 0 -19 -22
-71 -48 -115 -26 -44 -65 -117 -88 -162 -22 -45 -54 -93 -71 -107 -17 -14 -31
-38 -31 -53 0 -16 -7 -28 -16 -28 -8 0 -30 -25 -48 -55 -44 -73 -91 -132 -181
-230 -41 -45 -75 -90 -75 -99 0 -10 -9 -13 -20 -6 -11 7 -20 -1 -20 -18 0 -16
-12 -37 -27 -46 -15 -9 -76 -58 -135 -110 -181 -159 -222 -191 -276 -219 -29
-15 -57 -33 -62 -40 -49 -65 -69 -30 -222 393 -157 430 -280 1003 -198 917 9
-9 36 -107 59 -217 64 -297 235 -883 253 -865 5 5 -13 101 -41 213 -27 112
-63 332 -81 488 -17 156 -35 307 -39 334 -4 28 -8 67 -9 87 -2 31 -7 34 -32
13 -24 -20 -30 -19 -30 6 0 17 10 34 23 38 21 7 41 676 21 676 -4 0 -47 -31
-97 -70 -51 -38 -122 -80 -159 -94 l-68 -24 0 -171 c1 -174 25 -357 100 -751
29 -151 46 -336 53 -590 11 -380 27 -488 78 -508 34 -13 38 28 10 123 -32 114
9 70 45 -47 36 -118 11 -184 -60 -159 -13 5 -27 -2 -32 -15 -30 -84 -79 167
-75 386 6 335 -45 802 -112 1040 l-15 50 -15 -50 c-14 -44 -15 -42 -10 15 3
36 0 65 -8 65 -8 0 -24 39 -36 87 -12 48 -35 98 -51 112 -16 13 -25 37 -18 53
23 60 -129 168 -236 168 -59 0 -13 -56 77 -93 63 -27 95 -57 35 -34 -33 13
-40 -15 -11 -44 30 -31 176 -413 213 -557 18 -72 41 -132 50 -132 10 0 18 -30
18 -67 0 -38 17 -175 38 -305 54 -333 72 -748 32 -748 -23 0 -30 26 -30 105 0
183 -76 515 -149 654 -15 28 -59 119 -98 201 -86 185 -319 554 -341 540 -9 -5
-29 16 -46 49 l-31 58 -30 -88 c-36 -111 -72 -152 -158 -183 -77 -28 -80 -38
-33 -109 22 -34 34 -94 35 -174 0 -68 6 -127 12 -133 144 -132 319 -1090 199
-1090 -50 0 -50 1 -55 200 -7 251 -102 633 -224 900 -10 22 -23 94 -30 160
-18 177 -44 206 -186 206 -185 0 -431 91 -603 221 l-68 52 16 -48 c16 -52 112
-192 247 -361 180 -224 245 -283 347 -317 117 -39 120 -75 6 -69 -136 8 -610
548 -662 756 -16 66 -52 63 -94 -9 -19 -32 -73 -88 -119 -124 -118 -90 -225
-183 -361 -313 l-116 -110 85 -87 c47 -48 97 -87 111 -87 14 0 26 -18 26 -40
0 -21 31 -105 68 -185 102 -217 172 -409 172 -470 0 -208 182 343 189 571 4
143 27 201 69 175 54 -33 -20 -427 -127 -678 -19 -43 -29 -82 -23 -88 6 -6 17
4 24 22 7 18 20 28 30 22 10 -6 4 -37 -12 -69 -17 -32 -30 -71 -30 -87 0 -31
-161 16 -177 51 -3 9 -24 16 -45 16 -48 0 -189 70 -210 103 -8 13 -18 155 -21
314 -6 277 -9 294 -60 368 -74 106 -84 108 -118 26 -77 -184 -125 -480 -79
-482 82 -3 276 -170 240 -206 -11 -11 -230 99 -230 116 0 8 -23 25 -52 38 -67
31 -56 140 44 436 79 236 76 219 38 234 -42 16 -119 -161 -161 -373 -48 -235
-41 -225 -109 -161 -73 69 -76 92 -10 75 38 -9 50 -4 50 19 0 43 90 315 129
391 30 59 30 62 -7 62 -102 0 -137 -53 -210 -321 l-45 -164 -53 64 c-30 35
-54 71 -54 80 0 9 -19 21 -41 27 -23 6 -47 30 -53 52 -6 23 -18 37 -27 31 -9
-5 -23 1 -31 14 -9 14 -6 18 9 9 13 -8 23 -6 23 4 0 20 91 124 109 124 6 0 12
-29 12 -65 1 -36 18 -100 37 -144 l34 -78 116 336 c256 748 267 1351 30 1680
-90 126 -88 134 -89 -294 0 -491 -29 -651 -233 -1320 -74 -241 -73 -240 -138
-148 -27 37 -84 115 -127 174 -155 207 -386 677 -422 859 -3 17 -7 30 -9 30
-4 0 -14 42 -24 100 -4 22 -12 49 -18 60 -6 11 -13 54 -15 95 -3 42 -12 96
-21 120 -9 25 -12 79 -7 120 5 41 2 75 -8 75 -35 0 -9 663 32 818 13 45 16 93
9 106 -8 12 -5 17 6 9 17 -10 44 103 46 192 3 89 237 594 355 762 203 292 250
352 267 342 10 -6 18 4 18 23 0 31 278 317 293 301 14 -13 -58 -136 -85 -147
-15 -5 -28 -19 -28 -30 0 -26 -163 -174 -193 -175 -50 -2 -73 -121 -62 -317
16 -269 92 -440 125 -279 53 264 367 959 370 820 1 -8 -35 -87 -80 -175 -84
-168 -220 -512 -220 -555 0 -14 82 139 181 340 208 420 222 505 87 505 -38 0
-68 8 -68 18 0 70 709 481 920 534 17 4 93 26 170 48 77 23 203 51 280 62 77
12 144 25 148 30 17 16 719 8 814 -10z m2008 -43 c10 18 18 16 26 -7 7 -17 6
-31 -2 -29 -38 5 -47 -6 -24 -33 14 -17 20 -37 13 -44 -7 -7 -13 -2 -13 12 0
13 -10 18 -23 10 -14 -8 -18 -5 -10 8 8 11 5 27 -6 33 -10 7 -13 27 -6 46 9
24 15 26 21 7 7 -20 12 -21 24 -3z m235 -174 c-5 -41 -8 -12 -8 65 -1 77 3
111 7 75 5 -35 5 -98 1 -140z m-560 -10 c25 25 49 35 56 24 6 -11 20 -15 30
-8 10 6 13 -4 6 -22 -10 -26 -16 -27 -29 -6 -13 20 -18 17 -18 -13 0 -33 -4
-34 -19 -11 -16 26 -20 26 -31 -1 -6 -17 -25 -31 -41 -31 -16 0 -25 4 -20 9 5
5 1 25 -9 44 -10 19 -12 41 -4 49 7 8 19 -6 25 -32 l10 -46 44 44z m-2735
-153 c0 -21 -26 -97 -58 -168 -45 -101 -162 -561 -162 -639 0 -34 66 -10 183
65 89 58 130 75 146 59 24 -24 22 -25 -197 -150 l-142 -80 -6 -319 c-6 -376
-5 -379 70 -339 62 32 166 39 166 11 0 -63 -28 -82 -122 -82 -94 0 -98 -2 -98
-55 1 -84 26 -114 76 -87 23 12 64 22 93 22 41 0 51 10 51 51 0 31 8 46 21 38
11 -7 16 -28 9 -48 -8 -25 11 -55 59 -98 39 -34 71 -69 72 -77 0 -9 18 -52 39
-96 147 -305 -63 -651 -344 -567 -129 39 -277 272 -206 325 25 18 26 33 7 83
-24 64 -9 209 22 209 9 0 32 23 50 51 38 58 26 169 -18 169 -29 0 -57 -54 -41
-80 6 -9 2 -37 -9 -63 -30 -75 -25 248 9 601 35 359 41 337 -76 271 -122 -68
-215 -95 -201 -58 6 14 75 53 154 86 159 67 142 38 194 333 57 325 259 819
259 632z m611 -321 c-7 -10 22 -20 64 -21 134 -4 162 -8 152 -24 -12 -20 -11
-20 69 3 40 11 60 11 53 0 -6 -11 2 -19 17 -19 16 0 40 -13 54 -30 15 -18 17
-30 4 -30 -11 0 -24 11 -29 24 -12 37 -74 2 -95 -55 -56 -147 13 -207 75 -66
l36 84 -2 -91 c-1 -80 -42 -162 -78 -155 -6 1 -37 9 -70 19 -38 11 -61 9 -66
-5 -4 -11 -78 -24 -166 -28 -87 -4 -149 -1 -136 8 32 21 127 204 127 244 0 78
-80 92 -135 24 -22 -27 -25 -27 -25 0 0 16 23 51 50 77 28 26 50 39 50 29 0
-9 11 -6 24 7 29 29 43 31 27 5z m-544 -46 c63 -46 64 -159 2 -232 -29 -36
-58 -60 -64 -55 -5 6 14 38 43 73 105 125 -22 263 -137 148 -48 -49 -37 -8 12
45 49 52 93 58 144 21z m1863 -75 c-54 -59 -14 -140 70 -140 33 0 60 11 60 23
0 13 6 18 13 10 8 -7 -7 -35 -32 -62 l-47 -50 -58 42 c-98 69 -108 202 -18
222 49 11 52 -1 12 -45z m-3363 -316 c5 -8 -11 -35 -37 -60 -26 -25 -61 -83
-78 -130 l-31 -84 12 130 c6 72 16 137 20 145 12 20 102 19 114 -1z m3327
-709 c-4 -36 -8 -11 -8 55 0 66 4 95 8 65 5 -30 5 -84 0 -120z m1431 -34 c15
-53 -46 -73 -82 -27 -27 34 -28 34 -16 0 16 -47 -243 -172 -270 -130 -32 51
-15 69 98 105 63 19 138 48 165 63 69 37 94 34 105 -11z m41 -121 c8 -31 -5
-49 -50 -72 -72 -37 -63 -59 12 -25 58 26 65 23 75 -31 6 -31 -17 -44 -130
-75 -76 -21 -156 -48 -178 -60 -30 -16 -44 -15 -57 6 -28 44 -21 77 17 77 19
0 49 10 65 22 22 16 11 18 -45 9 -41 -7 -75 -9 -75 -4 0 6 -5 24 -12 41 -10
26 4 32 80 32 71 0 112 14 175 60 98 71 109 73 123 20z m-2952 -500 l15 -90
12 120 c12 115 12 113 16 -56 2 -113 -4 -172 -17 -164 -11 7 -20 30 -20 52 0
22 -9 35 -20 28 -13 -8 -19 57 -17 184 2 108 7 156 10 106 4 -49 13 -130 21
-180z m3007 239 c45 -23 53 -122 14 -155 -58 -48 -282 -83 -330 -52 -84 55
-30 188 77 188 64 0 59 -75 -6 -88 -33 -6 -53 -20 -46 -32 7 -11 19 -17 26
-13 8 5 66 19 129 32 63 13 115 33 115 45 0 11 -20 15 -48 8 -34 -8 -52 -2
-61 22 -22 57 57 85 130 45z m73 -299 c50 -102 -67 -169 -274 -156 -105 7
-158 87 -97 148 75 75 335 81 371 8z m-2510 -223 c7 -53 69 -66 96 -20 18 30
22 30 42 -4 12 -20 57 -51 100 -70 l79 -33 -236 -2 c-178 -1 -271 -12 -385
-45 -209 -61 -512 -123 -587 -121 -60 1 -61 2 -13 17 28 8 97 39 155 68 57 29
111 52 120 50 27 -4 145 28 154 42 5 8 50 12 100 9 66 -4 91 2 91 22 0 41 38
57 71 29 23 -19 29 -17 29 11 0 26 6 30 26 14 40 -34 103 -15 110 33 4 24 15
43 24 43 9 0 20 -19 24 -43z m2307 1 c10 -15 20 -15 35 0 42 42 194 27 194
-18 0 -34 -13 -40 -90 -40 -49 0 -90 -8 -90 -18 0 -9 41 -13 90 -7 86 10 90 8
90 -42 l0 -53 -203 0 -202 0 11 83 c14 105 121 166 165 95z m-2822 -16 c16
-26 -10 -84 -31 -71 -24 15 -23 89 1 89 10 0 24 -8 30 -18z m1445 -153 c47
-47 -64 -66 -211 -36 -90 17 -78 40 32 61 100 19 139 14 179 -25z m-2039 -185
c38 -6 45 3 45 55 0 69 14 77 51 26 29 -40 -31 -145 -83 -145 -53 0 -148 85
-148 132 0 104 26 115 59 26 23 -63 45 -90 76 -94z m-155 16 c0 -21 -53 -40
-112 -40 -60 0 -63 36 -4 58 48 17 116 7 116 -18z m3074 -58 c-51 -114 -69
-119 -33 -8 20 62 49 104 73 106 2 0 -16 -44 -40 -98z m406 68 c0 -17 18 -30
40 -30 22 0 40 9 40 20 0 11 18 20 40 20 22 0 40 -13 40 -30 0 -17 18 -30 40
-30 22 0 40 13 40 30 0 17 18 30 41 30 36 0 41 -11 35 -75 l-6 -75 -90 5
c-283 16 -300 22 -300 96 0 56 8 69 40 69 22 0 40 -13 40 -30z m-2450 -113
c44 -1 116 5 160 12 111 19 160 -18 141 -106 -30 -136 -265 -208 -439 -135
-170 71 -180 273 -12 242 39 -7 106 -13 150 -13z m-851 -66 c59 -71 -20 -168
-90 -110 -30 25 -39 102 -16 126 23 23 81 14 106 -16z m3355 10 c53 -10 130
-24 171 -31 59 -9 75 -21 75 -53 0 -38 -8 -40 -90 -28 -59 9 -90 6 -90 -8 0
-11 36 -21 80 -21 73 0 80 -5 80 -52 0 -49 -5 -52 -65 -40 -36 7 -126 23 -200
35 -136 23 -145 29 -124 84 9 23 26 25 75 11 78 -22 74 -22 74 0 0 10 -31 23
-70 31 -65 12 -89 45 -57 78 18 17 27 17 141 -6z m-104 -241 c0 -20 44 -40
139 -61 136 -31 165 -53 144 -108 -8 -22 -36 -20 -155 15 -108 31 -147 36
-153 18 -25 -73 -90 -23 -77 59 18 114 102 177 102 77z m56 -310 c135 -47 155
-60 150 -97 -7 -52 -22 -51 -221 21 -105 38 -155 66 -155 88 0 40 21 61 49 50
11 -5 91 -33 177 -62z m-685 -100 c-9 -44 -24 -125 -33 -180 l-16 -100 -12 80
c-6 44 -4 91 6 104 10 13 12 34 5 45 -8 12 -4 21 8 21 11 0 21 33 21 74 0 47
7 67 19 55 11 -11 12 -51 2 -99z m574 -9 c68 -33 146 -66 174 -73 58 -14 59
-16 30 -69 -20 -38 -22 -38 -102 2 -55 28 -78 33 -73 16 5 -15 38 -35 73 -45
64 -18 76 -41 46 -87 -12 -20 -52 -9 -168 45 -84 38 -163 70 -175 70 -14 0
-18 17 -9 45 19 62 19 62 77 25 28 -19 62 -30 76 -25 15 5 -7 26 -48 45 -62
31 -71 42 -54 73 24 46 8 48 153 -22z m-128 -207 c41 -29 24 -103 -20 -85 -15
6 -42 17 -60 24 -66 27 -6 -30 86 -81 105 -59 160 -68 91 -16 -39 30 -41 40
-19 71 25 34 29 34 81 -7 67 -53 69 -99 6 -158 l-48 -45 -87 44 c-116 58 -217
135 -217 166 0 88 114 141 187 87z m-1861 -370 c4 -210 -89 -547 -138 -499
-31 31 -15 250 26 349 23 57 48 160 56 228 19 161 52 114 56 -78z m508 11 c-4
-36 -8 -6 -8 65 0 72 4 101 8 65 5 -36 5 -94 0 -130z m1222 154 c70 -49 25
-124 -47 -77 -96 63 -47 -8 55 -79 94 -66 176 -87 88 -22 -40 30 -31 89 14 89
92 0 118 -155 34 -200 -46 -25 -81 -10 -225 94 -104 76 -118 123 -55 186 48
48 77 50 136 9z m-86 -250 c147 -121 164 -259 32 -259 -63 0 -262 182 -262
239 0 124 93 132 230 20z m-2901 -110 c37 -38 40 -81 6 -103 -27 -16 -38 -20
-84 -23 -52 -5 -86 -107 -100 -302 -17 -236 -42 -291 -61 -137 -14 115 64 511
114 570 29 35 87 33 125 -5z m2674 -22 c21 -18 37 -44 37 -58 0 -14 22 -30 50
-37 99 -25 123 -101 57 -180 -73 -89 -56 -94 -218 69 l-139 141 56 49 c66 57
107 62 157 16z m-1899 -91 c-46 -47 -73 -42 -53 10 12 30 68 55 88 40 5 -4
-11 -27 -35 -50z m1379 -486 c9 -34 8 -67 -4 -79 -12 -12 -19 -8 -19 14 0 44
-58 99 -87 81 -12 -7 -10 2 5 21 40 49 86 33 105 -37z m97 -243 c0 -10 -117
-67 -134 -66 -9 0 0 10 20 21 30 18 35 37 24 105 l-14 83 52 -69 c29 -38 52
-71 52 -74z m-1737 -237 c-4 -55 -14 -104 -23 -110 -36 -23 -374 15 -392 43
-6 10 -19 13 -29 6 -21 -13 -211 66 -195 81 33 34 214 25 247 -11 48 -53 80
-49 219 32 159 91 182 86 173 -41z m1108 92 c-6 -10 19 -15 56 -12 82 8 133
-18 100 -51 -28 -28 -289 -100 -311 -86 -9 5 -16 -1 -16 -14 0 -13 -14 -18
-30 -12 -17 7 -54 3 -83 -8 -29 -11 -57 -15 -63 -10 -13 13 56 91 80 91 10 0
37 18 61 40 23 22 48 32 54 23 6 -9 38 -1 71 19 67 39 98 47 81 20z"/>
<path d="M1900 5640 c-71 -43 -170 -84 -220 -91 -221 -34 -429 -440 -530
-1037 -32 -191 -41 -623 -13 -640 10 -6 22 -83 28 -170 7 -98 23 -177 43 -205
41 -59 41 -162 0 -241 -24 -46 -27 -72 -11 -104 11 -23 26 -96 34 -162 13
-120 134 -613 170 -696 22 -50 22 -47 -41 246 -96 440 -112 1826 -22 1856 22
7 25 -13 15 -108 -54 -517 -23 -1453 61 -1838 17 -77 38 -176 47 -220 32 -157
100 -301 188 -399 102 -111 105 -128 14 -77 l-63 36 -70 -70 c-39 -38 -89 -88
-112 -110 -56 -55 -172 -248 -189 -315 -18 -75 110 -83 166 -10 55 71 310 325
360 359 43 29 44 34 17 110 -64 182 -141 1245 -93 1293 26 26 35 -6 49 -177
18 -231 166 -750 213 -750 31 0 22 65 -39 272 -88 297 -107 429 -110 751 -1
162 -8 279 -15 260 -7 -19 -27 -46 -45 -61 -76 -63 -66 124 16 281 l49 95 -37
97 c-209 550 -112 1326 222 1778 116 157 108 161 -82 47z m-256 -497 l43 -68
-42 27 c-30 18 -55 20 -89 6 -38 -16 -55 -10 -99 35 -58 61 -47 72 69 69 63
-2 83 -13 118 -69z m-61 -267 c-7 -7 -35 -17 -63 -21 -27 -4 -70 -18 -95 -31
-95 -53 -134 14 -45 78 42 31 81 64 88 75 6 10 38 -5 70 -34 32 -29 53 -59 45
-67z"/>
<path d="M1334 5380 c-34 -35 -60 -86 -66 -133 -9 -66 -7 -71 13 -37 13 22 50
83 81 135 65 107 55 119 -28 35z"/>
<path d="M3800 4825 c0 -18 55 -315 71 -381 6 -29 37 -58 81 -76 38 -16 64
-38 58 -48 -7 -12 -32 -7 -60 12 l-47 31 9 -127 c6 -69 14 -192 20 -272 9
-131 46 -224 89 -224 59 0 92 763 41 954 -20 72 -30 81 -129 112 -120 38 -133
40 -133 19z m240 -773 c0 -73 -20 -111 -52 -99 -47 19 -37 147 12 147 29 0 40
-13 40 -48z"/>
<path d="M1070 4646 c-31 -64 -90 -186 -133 -271 -83 -170 -67 -180 68 -40 67
68 79 97 105 245 36 205 31 213 -40 66z"/>
<path d="M3646 4472 c-3 -192 -14 -314 -34 -372 -16 -48 -26 -94 -21 -102 5
-9 1 -21 -11 -28 -11 -7 -20 -26 -20 -42 0 -22 14 -19 60 15 66 49 79 82 25
65 -33 -11 -33 -10 -1 17 30 24 36 74 41 327 l6 298 5 -305 4 -304 55 21 c30
11 57 20 60 19 29 -8 45 6 45 38 0 21 -9 44 -20 51 -11 7 -20 43 -20 81 0 37
-13 97 -29 133 -16 36 -34 108 -41 159 -7 52 -25 105 -41 118 -16 13 -29 36
-29 50 0 15 -7 31 -15 36 -8 5 -17 -119 -19 -275z"/>
<path d="M582 4600 c-1 -27 -16 -76 -32 -107 -17 -32 -30 -70 -30 -85 0 -16
-7 -28 -17 -28 -13 0 -68 -185 -56 -192 1 -1 31 10 66 24 64 27 114 272 81
400 -7 30 -10 27 -12 -12z"/>
<path d="M655 4550 c-23 -103 -24 -277 -2 -284 47 -16 59 46 37 194 -18 125
-24 140 -35 90z"/>
<path d="M5445 4350 c-30 -34 -33 -90 -6 -90 11 0 15 12 9 27 -6 15 4 33 21
40 17 6 31 21 31 32 0 29 -25 25 -55 -9z"/>
<path d="M956 4247 l-93 -93 83 -153 82 -153 -54 -105 c-50 -96 -52 -105 -19
-116 19 -7 65 -25 102 -40 l66 -26 -10 74 c-47 341 -56 450 -47 568 13 163 10
164 -110 44z"/>
<path d="M469 4141 l-199 -98 -47 -123 c-55 -143 -50 -160 32 -91 33 27 64 45
70 39 6 -6 47 7 90 30 74 37 88 58 135 192 13 37 15 38 28 4 11 -30 21 -22 60
46 63 113 57 113 -169 1z"/>
<path d="M681 4098 c-37 -102 -51 -120 -84 -112 -30 8 -41 -2 -50 -46 -10 -48
-30 -64 -129 -101 -65 -24 -112 -53 -105 -63 7 -13 18 -11 27 5 48 77 312 10
441 -114 l71 -68 56 117 c66 138 67 128 -48 339 -108 197 -122 200 -179 43z"/>
<path d="M3811 3762 c-9 -14 11 -22 58 -22 63 0 71 -6 71 -52 0 -47 -4 -50
-33 -25 -70 58 -136 20 -155 -88 -16 -85 10 -100 44 -25 16 33 16 50 2 50 -11
0 -15 9 -8 20 33 53 170 -28 170 -101 0 -16 13 -5 28 24 32 61 26 151 -12 189
-37 37 -148 57 -165 30z"/>
<path d="M345 3739 c-25 -10 -45 -11 -45 -4 0 8 -14 -7 -32 -32 -34 -48 -27
-146 14 -195 20 -25 278 195 278 237 0 21 -160 17 -215 -6z"/>
<path d="M580 3692 c0 -16 -8 -32 -18 -35 -25 -9 -162 -254 -162 -289 0 -32
51 -38 70 -9 6 11 45 29 86 40 114 31 217 100 182 122 -15 10 -28 27 -28 39 0
12 -13 30 -29 40 -17 10 -23 24 -15 32 15 16 -41 88 -69 88 -9 0 -17 -13 -17
-28z"/>
<path d="M3681 3657 c-27 -44 -40 -98 -39 -157 l3 -90 18 109 c10 60 33 125
51 145 18 20 27 42 20 48 -6 7 -30 -18 -53 -55z"/>
<path d="M875 3555 c-14 -25 -36 -63 -47 -85 -12 -22 -51 -54 -88 -72 l-66
-32 129 -35 c71 -19 151 -52 178 -72 l49 -38 -55 -1 c-31 0 -71 8 -90 19 -222
119 -395 139 -464 51 -32 -41 -85 -234 -68 -250 18 -19 567 -260 590 -260 21
0 97 214 97 271 0 29 12 49 28 49 85 0 147 374 68 406 -14 5 -73 29 -131 52
l-105 41 -25 -44z m174 -122 c35 -26 35 -28 -13 -37 -35 -6 -58 2 -73 27 -29
46 28 52 86 10z"/>
<path d="M140 3486 c0 -53 -14 -141 -31 -196 -38 -122 -58 -470 -28 -470 11 0
19 11 17 25 -2 14 0 39 6 55 6 17 21 92 32 169 13 80 47 187 83 255 59 112 60
119 28 167 -68 104 -107 102 -107 -5z"/>
<path d="M3872 3517 c-22 -71 -29 -157 -13 -166 45 -28 78 14 75 94 -4 79 -45
127 -62 72z"/>
<path d="M351 3450 c-228 -299 -262 -812 -79 -1174 47 -92 87 -134 59 -61
-114 293 -100 849 30 1170 63 156 62 159 -10 65z"/>
<path d="M3716 3467 c-30 -56 -3 -175 47 -212 92 -69 254 16 233 121 -5 26
-17 18 -46 -31 -60 -101 -209 -60 -193 52 6 48 -25 101 -41 70z"/>
<path d="M4032 3345 c-6 -19 -17 -46 -24 -60 -6 -14 -3 -25 7 -25 16 0 65 84
65 111 0 25 -37 5 -48 -26z"/>
<path d="M4480 3245 c-27 -87 9 -745 41 -745 12 0 3 765 -10 810 -3 11 -17
-18 -31 -65z"/>
<path d="M1122 3085 c-32 -61 -28 -88 28 -155 l49 -60 -12 100 c-17 136 -35
169 -65 115z"/>
<path d="M300 2851 c0 -180 66 -647 109 -769 41 -115 40 -116 -24 -39 -30 37
-60 72 -66 77 -7 6 -29 39 -50 75 -21 36 -44 65 -51 65 -7 0 -24 41 -38 91
-14 49 -29 86 -34 82 -20 -20 85 -311 143 -397 64 -95 168 -193 174 -162 5 29
11 75 14 112 8 102 39 -7 41 -148 2 -89 11 -177 20 -195 9 -18 12 -46 7 -61
-6 -15 -2 -23 7 -17 10 6 30 -2 44 -17 21 -23 21 -28 0 -28 -21 -1 -20 -4 1
-18 14 -9 26 -22 25 -29 -6 -44 0 -74 14 -66 15 10 30 -20 88 -174 l29 -77 32
87 c144 386 169 640 116 1187 -28 291 -43 350 -91 350 -27 0 -219 82 -290 123
-16 9 -52 27 -80 39 -27 12 -66 30 -85 40 -54 28 -55 26 -55 -131z m281 -289
c-11 -21 -21 -56 -21 -76 0 -24 -14 -37 -40 -37 -47 0 -51 17 -11 50 16 13 40
57 54 98 16 47 28 61 32 39 4 -19 -2 -52 -14 -74z"/>
<path d="M1003 2793 c-1 -20 -22 -42 -45 -48 -33 -8 -39 -21 -29 -63 6 -29 18
-190 24 -359 15 -361 40 -360 62 0 12 197 2 612 -12 470z"/>
<path d="M4410 2700 c-27 -42 -40 -760 -15 -760 35 0 48 81 58 350 10 278 -10
463 -43 410z"/>
<path d="M2186 2268 c-7 -18 3 -79 20 -135 29 -90 30 -107 4 -147 -46 -69 -37
-95 55 -171 177 -144 485 -274 650 -275 l85 0 0 85 c1 47 19 124 40 172 60
130 55 143 -55 143 -220 2 -434 92 -598 252 -112 109 -178 134 -201 76z m262
-466 c17 -15 32 -36 32 -48 0 -11 -23 6 -52 38 -55 62 -109 170 -106 212 1 14
22 -19 47 -75 26 -55 61 -112 79 -127z"/>
<path d="M3861 2166 c0 -20 28 -85 61 -146 l60 -110 -6 80 c-4 50 -15 78 -30
75 -14 -3 -20 8 -13 25 6 17 1 30 -11 30 -12 0 -22 13 -22 29 0 16 -9 34 -20
41 -11 7 -20 -4 -19 -24z"/>
<path d="M3360 2126 c0 -72 -60 -130 -171 -166 -38 -13 -69 -32 -69 -43 0 -11
9 -14 20 -7 31 19 23 -32 -20 -127 -87 -192 -48 -273 84 -176 79 57 153 251
86 226 -47 -18 -35 32 22 93 l51 56 61 -76 c33 -42 75 -105 92 -141 41 -85 46
-84 130 43 l71 107 -58 56 c-33 31 -59 48 -60 38 0 -18 -47 50 -49 71 -5 60
-70 77 -70 19 0 -51 -35 -119 -60 -119 -11 0 -14 26 -7 58 7 38 0 75 -21 105
l-32 46 0 -63z"/>
<path d="M2061 2111 c-50 -53 -30 -171 29 -171 46 0 94 98 80 161 -16 72 -48
75 -109 10z"/>
<path d="M3131 2101 c-35 -67 -39 -101 -13 -101 10 0 36 36 57 80 48 97 5 117
-44 21z"/>
<path d="M1849 1973 c-71 -65 -72 -68 -50 -149 30 -111 40 -113 146 -28 108
86 108 88 53 177 -51 83 -58 83 -149 0z"/>
<path d="M1398 1935 c-13 -47 -36 -115 -52 -151 -16 -36 -25 -90 -21 -120 7
-52 8 -53 26 -10 11 24 26 44 34 45 42 5 75 28 75 54 0 15 23 37 50 47 28 10
50 29 50 42 0 12 -14 17 -32 10 -17 -7 -41 -6 -53 1 -14 9 -8 19 16 28 35 13
33 17 -19 38 -45 17 -53 28 -35 46 28 28 30 55 4 55 -11 0 -30 -38 -43 -85z"/>
<path d="M2000 1793 c-26 -36 -65 -75 -88 -85 -23 -11 -40 -30 -37 -44 3 -13
-11 -24 -31 -24 -39 0 -424 -357 -424 -394 0 -60 63 -27 200 106 83 79 202
186 265 237 219 177 245 205 216 240 -37 44 -50 39 -101 -36z"/>
<path d="M1645 856 c7 -18 23 -72 36 -120 13 -47 31 -96 42 -109 12 -15 11
-28 -2 -36 -36 -23 -24 -148 17 -183 21 -18 66 -58 100 -89 101 -91 59 130
-75 396 -57 113 -148 222 -118 141z"/>
<path d="M2073 4033 c-16 -78 -5 -115 23 -82 9 11 11 51 4 89 l-12 70 -15 -77z"/>
<path d="M2244 3656 c-39 -39 -28 -59 18 -35 24 13 71 18 105 11 59 -11 61 -9
24 18 -47 36 -114 39 -147 6z"/>
<path d="M2105 3555 c-10 -47 -11 -89 -4 -95 7 -5 19 -58 27 -117 13 -103 47
-183 76 -183 8 0 8 34 1 75 -7 41 -14 131 -14 200 -1 69 -9 125 -18 125 -10 0
-8 12 4 27 25 29 11 53 -29 53 -14 0 -33 -38 -43 -85z"/>
<path d="M2479 3542 c72 -102 36 -286 -75 -375 -70 -56 -41 -87 31 -34 144
105 170 467 33 467 -25 0 -23 -10 11 -58z"/>
<path d="M2295 3558 c-19 -11 -35 -33 -35 -49 0 -33 32 -39 50 -9 7 11 34 20
61 20 55 0 66 29 17 48 -41 16 -51 15 -93 -10z"/>
<path d="M2360 3430 c25 -30 24 -38 -6 -59 -43 -32 -44 -63 -1 -79 50 -19 90
27 83 96 -5 48 -17 64 -55 69 -44 6 -46 3 -21 -27z"/>
<path d="M2240 3215 c0 -47 45 -72 95 -53 48 18 62 58 20 58 -14 0 -45 6 -70
13 -32 8 -45 3 -45 -18z"/>
<path d="M3070 5092 c-48 -72 -33 -141 32 -148 42 -5 57 6 79 57 45 111 -48
188 -111 91z"/>
<path d="M5670 3345 c-98 -9 -144 -45 -59 -45 95 1 209 24 209 43 0 9 -16 15
-35 14 -19 -2 -71 -7 -115 -12z"/>
<path d="M2920 2654 c0 -39 52 -92 114 -116 60 -22 246 -24 246 -1 0 37 -104
110 -165 116 -36 3 -94 11 -130 18 -51 11 -65 7 -65 -17z"/>
<path d="M5030 1268 c92 -80 158 -122 147 -92 -11 31 -178 164 -204 163 -13 0
13 -32 57 -71z"/>
</g>
</svg>
